#!OML:ASF G:\ViconDB\ViconDB\414\test\team2\shane.ASF
:FULLY-SPECIFIED
:DEGREES
145
root 5.12498 17.2975 -16.5427 -4.34928 3.07306 -8.73301
lowerback 10.8546 0.0291631 4.43607
upperback 5.64035 0.486687 2.0009
thorax -0.180174 0.307483 -0.471926
lowerneck -23.6834 -0.820838 -4.67735
upperneck 14.8617 -1.49329 9.42387
head 8.6322 0.0710369 3.79753
rclavicle -1.58034e-014 -7.15625e-015
rhumerus -81.8096 -0.657594 267.28
rradius 28.2343
rwrist 39.7204
rhand -6.98533 -4.5251
rfingers 7.12502
rthumb 18.8849 -33.6284
lclavicle -1.18277e-014 -2.46493e-014
lhumerus -223.389 -178.131 266.794
lradius 9.86388
lwrist -35.7903
lhand -31.5499 9.45894
lfingers 7.12502
lthumb -4.81412 39.3842
rfemur 1.40253 -12.8819 17.284
rtibia 30.7677
rfoot -5.81466 -9.01429
rtoes -11.265
lfemur -0.355944 8.93095 -2.89228
ltibia 35.2251
lfoot -19.3597 -8.49447
ltoes -15.9696
146
root 5.13893 17.3762 -16.5309 -4.25603 3.2012 -9.03701
lowerback 10.5349 0.0164077 4.73897
upperback 5.4729 0.483792 1.94574
thorax -0.176171 0.31086 -0.697409
lowerneck -23.6505 -0.743418 -4.32879
upperneck 15.1521 -1.48605 9.23379
head 8.72123 0.0778476 3.68076
rclavicle -1.58034e-014 -7.15625e-015
rhumerus -81.8096 -0.657594 267.28
rradius 28.2343
rwrist 39.7204
rhand -6.98533 -4.5251
rfingers 7.12502
rthumb 18.8849 -33.6284
lclavicle -1.18277e-014 -2.46493e-014
lhumerus -223.389 -178.131 266.794
lradius 9.86388
lwrist -35.7903
lhand -31.5499 9.45894
lfingers 7.12502
lthumb -4.81412 39.3842
rfemur 2.14638 -13.1503 17.6505
rtibia 28.9877
rfoot -4.7829 -9.20388
rtoes -10.779
lfemur 0.0413682 8.8772 -2.69726
ltibia 34.0793
lfoot -18.3689 -8.43801
ltoes -15.1534
147
root 5.1572 17.4451 -16.5218 -4.08468 3.29134 -9.07257
lowerback 10.2563 0.0411687 4.76438
upperback 5.22256 0.510721 1.90359
thorax -0.283636 0.320024 -0.757949
lowerneck -23.5115 -0.661202 -4.14533
upperneck 15.469 -1.41244 9.00604
head 8.79641 0.0996359 3.58659
rclavicle -1.58034e-014 -7.15625e-015
rhumerus -81.8096 -0.657594 267.28
rradius 28.2343
rwrist 39.7204
rhand -6.98533 -4.5251
rfingers 7.12502
rthumb 18.8849 -33.6284
lclavicle -1.18277e-014 -2.46493e-014
lhumerus -223.389 -178.131 266.794
lradius 9.86388
lwrist -35.7903
lhand -31.5499 9.45894
lfingers 7.12502
lthumb -4.81412 39.3842
rfemur 2.73219 -13.4529 17.6831
rtibia 27.3718
rfoot -3.95166 -9.36723
rtoes -9.7551
lfemur 0.375722 8.68123 -2.87565
ltibia 33.0079
lfoot -17.5769 -8.14277
ltoes -14.2834
148
root 5.17792 17.4962 -16.5164 -4.02486 3.2925 -9.25769
lowerback 10.1192 0.037124 4.81761
upperback 5.02197 0.511034 2.00627
thorax -0.418113 0.31457 -0.681842
lowerneck -23.3862 -0.553633 -4.16341
upperneck 15.7502 -1.24548 8.83976
head 8.85653 0.159044 3.55973
rclavicle -1.58034e-014 -7.15625e-015
rhumerus -81.8096 -0.657594 267.28
rradius 28.2343
rwrist 39.7204
rhand -6.98533 -4.5251
rfingers 7.12502
rthumb 18.8849 -33.6284
lclavicle -1.18277e-014 -2.46493e-014
lhumerus -223.389 -178.131 266.794
lradius 9.86388
lwrist -35.7903
lhand -31.5499 9.45894
lfingers 7.12502
lthumb -4.81412 39.3842
rfemur 3.37684 -13.54 17.9071
rtibia 25.8953
rfoot -3.23863 -9.67873
rtoes -9.43801
lfemur 0.80248 8.54243 -2.88108
ltibia 32.0353
lfoot -17.0087 -7.69007
ltoes -13.7596
149
root 5.19563 17.5322 -16.5119 -3.89421 3.46254 -9.6266
lowerback 10.091 0.0023101 5.21499
upperback 4.60447 0.517675 2.01307
thorax -0.831496 0.309511 -0.899736
lowerneck -22.9633 -0.476698 -3.92003
upperneck 16.0456 -1.21508 8.67671
head 8.88034 0.165594 3.4679
rclavicle -1.58034e-014 -7.15625e-015
rhumerus -81.8096 -0.657594 267.28
rradius 28.2343
rwrist 39.7204
rhand -6.98533 -4.5251
rfingers 7.12502
rthumb 18.8849 -33.6284
lclavicle -1.18277e-014 -2.46493e-014
lhumerus -223.389 -178.131 266.794
lradius 9.86388
lwrist -35.7903
lhand -31.5499 9.45894
lfingers 7.12502
lthumb -4.81412 39.3842
rfemur 3.87823 -14.0317 18.29
rtibia 24.605
rfoot -2.67476 -9.68367
rtoes -9.43886
lfemur 1.08866 8.38019 -2.62712
ltibia 31.1134
lfoot -16.612 -7.50215
ltoes -13.0471
150
root 5.21408 17.5563 -16.5057 -3.77183 3.35816 -9.53463
lowerback 9.96392 0.0367146 4.99375
upperback 4.36436 0.545637 2.05045
thorax -1.01443 0.313117 -0.740862
lowerneck -22.8605 -0.374978 -3.91392
upperneck 16.4111 -1.05831 8.4692
head 8.97438 0.218366 3.42339
rclavicle -1.58034e-014 -7.15625e-015
rhumerus -81.8096 -0.657594 267.28
rradius 28.2343
rwrist 39.7204
rhand -6.98533 -4.5251
rfingers 7.12502
rthumb 18.8849 -33.6284
lclavicle -1.18277e-014 -2.46493e-014
lhumerus -223.389 -178.131 266.794
lradius 9.86388
lwrist -35.7903
lhand -31.5499 9.45894
lfingers 7.12502
lthumb -4.81412 39.3842
rfemur 4.35635 -14.1982 18.1475
rtibia 23.4715
rfoot -2.41812 -9.72758
rtoes -8.70778
lfemur 1.51636 8.10396 -2.97425
ltibia 30.2813
lfoot -16.4375 -6.80149
ltoes -13.1283
151
root 5.22539 17.5696 -16.4937 -3.54688 3.43801 -9.40185
lowerback 9.69354 0.0992719 4.67729
upperback 4.00612 0.596207 1.97933
thorax -1.24054 0.326568 -0.643043
lowerneck -22.5504 -0.329408 -3.67201
upperneck 16.88 -1.07104 8.28558
head 9.08075 0.207325 3.32419
rclavicle -1.58034e-014 -7.15625e-015
rhumerus -81.8096 -0.657594 267.28
rradius 28.2343
rwrist 39.7204
rhand -6.98533 -4.5251
rfingers 7.12502
rthumb 18.8849 -33.6284
lclavicle -1.18277e-014 -2.46493e-014
lhumerus -223.389 -178.131 266.794
lradius 9.86388
lwrist -35.7903
lhand -31.5499 9.45894
lfingers 7.12502
lthumb -4.81412 39.3842
rfemur 4.68645 -14.1619 18.0668
rtibia 22.5238
rfoot -2.40368 -10.0022
rtoes -7.89107
lfemur 1.73113 8.14415 -3.23321
ltibia 29.5128
lfoot -16.4345 -6.57225
ltoes -12.9288
152
root 5.25231 17.566 -16.4943 -3.471 3.2364 -9.52256
lowerback 9.87408 0.142853 4.83999
upperback 3.64552 0.697264 2.02153
thorax -1.70797 0.3639 -0.704268
lowerneck -22.3845 -0.29632 -3.79024
upperneck 17.3337 -1.02071 8.29842
head 9.20534 0.226445 3.36429
rclavicle -1.58034e-014 -7.15625e-015
rhumerus -81.8096 -0.657594 267.28
rradius 28.2343
rwrist 39.7204
rhand -6.98533 -4.5251
rfingers 7.12502
rthumb 18.8849 -33.6284
lclavicle -1.18277e-014 -2.46493e-014
lhumerus -223.389 -178.131 266.794
lradius 9.86388
lwrist -35.7903
lhand -31.5499 9.45894
lfingers 7.12502
lthumb -4.81412 39.3842
rfemur 5.03667 -14.4217 18.0576
rtibia 21.7065
rfoot -2.32081 -9.67224
rtoes -8.28643
lfemur 2.20571 8.44397 -3.21605
ltibia 28.8091
lfoot -16.7516 -6.33875
ltoes -13.0624
153
root 5.27182 17.544 -16.4931 -3.31465 3.09192 -9.43777
lowerback 9.77878 0.217739 4.69636
upperback 3.38699 0.786394 1.96618
thorax -1.9219 0.400278 -0.691717
lowerneck -22.3256 -0.227644 -3.58769
upperneck 17.7939 -0.990713 8.16024
head 9.3513 0.242938 3.29679
rclavicle -1.58034e-014 -7.15625e-015
rhumerus -81.8096 -0.657594 267.28
rradius 28.2343
rwrist 39.7204
rhand -6.98533 -4.5251
rfingers 7.12502
rthumb 18.8849 -33.6284
lclavicle -1.18277e-014 -2.46493e-014
lhumerus -223.389 -178.131 266.794
lradius 9.86388
lwrist -35.7903
lhand -31.5499 9.45894
lfingers 7.12502
lthumb -4.81412 39.3842
rfemur 5.3043 -14.4575 17.8723
rtibia 20.9984
rfoot -2.66048 -9.58701
rtoes -7.7186
lfemur 2.50837 8.73792 -3.44924
ltibia 28.2099
lfoot -17.1626 -5.89545
ltoes -13.3222
